<?xml version="1.0" encoding="UTF-8"?>
<!-- Generator: visioncortex VTracer 0.6.4 -->
<svg version="1.1" xmlns="http://www.w3.org/2000/svg" width="512" height="512">
<path d="M0 0 C6.6 0 13.2 0 20 0 C20.04 2.95 20.07 5.9 20.11 8.94 C20.16 11.81 20.21 14.69 20.26 17.56 C20.3 19.55 20.32 21.54 20.35 23.53 C20.38 26.4 20.43 29.26 20.49 32.13 C20.5 33.45 20.5 33.45 20.51 34.8 C20.64 40.22 21.14 44.33 24 49 C28.97 51.77 34.71 51.28 40.26 51.27 C42.29 51.29 44.32 51.31 46.34 51.34 C49.51 51.36 52.68 51.37 55.85 51.38 C72.29 51.43 84.84 52.12 97.13 64.07 C106.62 74.11 108.5 84 108.28 97.43 C107.79 109.13 101.94 117.44 93.69 125.25 C87.27 130.77 79.94 134.09 71.43 134.16 C70.54 134.17 69.64 134.18 68.71 134.19 C67.75 134.2 66.79 134.2 65.79 134.21 C63.74 134.24 61.69 134.27 59.64 134.3 C56.41 134.34 53.19 134.38 49.96 134.4 C46.84 134.43 43.72 134.47 40.61 134.52 C39.17 134.53 39.17 134.53 37.7 134.53 C32.07 134.64 27.95 135.23 23 138 C20.59 142.59 20.43 147.89 20 153 C21.65 153 23.3 153 25 153 C25 162.9 25 172.8 25 183 C101.23 183 177.46 183 256 183 C256 258.9 256 334.8 256 413 C93.64 413 -68.72 413 -236 413 C-236 337.1 -236 261.2 -236 183 C-159.77 183 -83.54 183 -5 183 C-5 173.1 -5 163.2 -5 153 C-3.35 153 -1.7 153 0 153 C-0.07 151.91 -0.14 150.82 -0.21 149.7 C-0.69 138.92 0.34 130.64 7.64 122.07 C14.75 115.38 22.93 113.41 32.44 113.46 C33.41 113.45 34.38 113.44 35.37 113.43 C38.44 113.39 41.5 113.38 44.56 113.38 C47.63 113.36 50.7 113.34 53.76 113.3 C55.66 113.28 57.56 113.27 59.46 113.28 C67.49 113.21 74.65 112.37 81 107 C84.92 102.72 86.36 98.79 86.62 93 C86.35 87.21 85.04 83.2 81 79 C73.6 72.92 66.21 72.87 56.99 72.89 C55.02 72.88 53.04 72.87 51.06 72.85 C47.98 72.83 44.89 72.81 41.8 72.82 C18.04 72.9 18.04 72.9 8.11 64.38 C0.9 56.8 -0.59 48.29 -0.39 38.18 C-0.38 37.09 -0.38 35.99 -0.37 34.86 C-0.35 31.38 -0.3 27.91 -0.25 24.44 C-0.23 22.07 -0.21 19.7 -0.2 17.33 C-0.15 11.56 -0.08 5.78 0 0 Z " fill="#6E83B7" transform="translate(246,49)"/>
<path d="M0 0 C6.6 0 13.2 0 20 0 C20.04 2.95 20.07 5.9 20.11 8.94 C20.16 11.81 20.21 14.69 20.26 17.56 C20.3 19.55 20.32 21.54 20.35 23.53 C20.38 26.4 20.43 29.26 20.49 32.13 C20.49 33.01 20.5 33.89 20.51 34.8 C20.64 40.22 21.14 44.33 24 49 C28.97 51.77 34.71 51.28 40.26 51.27 C42.29 51.29 44.32 51.31 46.34 51.34 C49.51 51.36 52.68 51.37 55.85 51.38 C72.29 51.43 84.84 52.12 97.13 64.07 C106.62 74.11 108.5 84 108.28 97.43 C107.79 109.13 101.94 117.44 93.69 125.25 C87.27 130.77 79.94 134.09 71.43 134.16 C70.54 134.17 69.64 134.18 68.71 134.19 C67.75 134.2 66.79 134.2 65.79 134.21 C63.74 134.24 61.69 134.27 59.64 134.3 C56.41 134.34 53.19 134.38 49.96 134.4 C46.84 134.43 43.72 134.47 40.61 134.52 C39.17 134.53 39.17 134.53 37.7 134.53 C32.07 134.64 27.95 135.23 23 138 C20.59 142.59 20.43 147.89 20 153 C21.65 153 23.3 153 25 153 C25 162.9 25 172.8 25 183 C15.1 183 5.2 183 -5 183 C-5 173.1 -5 163.2 -5 153 C-3.35 153 -1.7 153 0 153 C-0.07 151.91 -0.14 150.82 -0.21 149.7 C-0.69 138.92 0.34 130.64 7.64 122.07 C14.75 115.38 22.93 113.41 32.44 113.46 C33.41 113.45 34.38 113.44 35.37 113.43 C38.44 113.39 41.5 113.38 44.56 113.38 C47.63 113.36 50.7 113.34 53.76 113.3 C55.66 113.28 57.56 113.27 59.46 113.28 C67.49 113.21 74.65 112.37 81 107 C84.92 102.72 86.36 98.79 86.62 93 C86.35 87.21 85.04 83.2 81 79 C73.6 72.92 66.21 72.87 56.99 72.89 C55.02 72.88 53.04 72.87 51.06 72.85 C47.98 72.83 44.89 72.81 41.8 72.82 C18.04 72.9 18.04 72.9 8.11 64.38 C0.9 56.8 -0.59 48.29 -0.39 38.18 C-0.38 37.09 -0.38 35.99 -0.37 34.86 C-0.35 31.38 -0.3 27.91 -0.25 24.44 C-0.23 22.07 -0.21 19.7 -0.2 17.33 C-0.15 11.56 -0.08 5.78 0 0 Z " fill="#6D83B7" transform="translate(246,49)"/>
<path d="M0 0 C73.26 0 146.52 0 222 0 C222 9.9 222 19.8 222 30 C148.74 30 75.48 30 0 30 C0 20.1 0 10.2 0 0 Z " fill="#FFB0AA" transform="translate(122,412)"/>
<path d="M0 0 C12.54 0 25.08 0 38 0 C38 23.1 38 46.2 38 70 C15.23 70 -7.54 70 -31 70 C-31 60.1 -31 50.2 -31 40 C-20.77 40 -10.54 40 0 40 C0 26.8 0 13.6 0 0 Z " fill="#98CA69" transform="translate(398,292)"/>
<path d="M0 0 C21.12 0 42.24 0 64 0 C64 9.9 64 19.8 64 30 C42.88 30 21.76 30 0 30 C0 20.1 0 10.2 0 0 Z " fill="#466089" transform="translate(30,372)"/>
<path d="M0 0 C18.48 0 36.96 0 56 0 C56 9.9 56 19.8 56 30 C37.52 30 19.04 30 0 30 C0 20.1 0 10.2 0 0 Z " fill="#466089" transform="translate(334,372)"/>
<path d="M0 0 C17.16 0 34.32 0 52 0 C52 9.9 52 19.8 52 30 C34.84 30 17.68 30 0 30 C0 20.1 0 10.2 0 0 Z " fill="#466089" transform="translate(430,252)"/>
<path d="M0 0 C16.5 0 33 0 50 0 C50 9.9 50 19.8 50 30 C33.5 30 17 30 0 30 C0 20.1 0 10.2 0 0 Z " fill="#466089" transform="translate(30,332)"/>
<path d="M0 0 C11.88 0 23.76 0 36 0 C36 9.9 36 19.8 36 30 C24.12 30 12.24 30 0 30 C0 20.1 0 10.2 0 0 Z " fill="#FFE352" transform="translate(446,412)"/>
<path d="M0 0 C11.88 0 23.76 0 36 0 C36 9.9 36 19.8 36 30 C24.12 30 12.24 30 0 30 C0 20.1 0 10.2 0 0 Z " fill="#FFE352" transform="translate(400,412)"/>
<path d="M0 0 C11.88 0 23.76 0 36 0 C36 9.9 36 19.8 36 30 C24.12 30 12.24 30 0 30 C0 20.1 0 10.2 0 0 Z " fill="#FFE352" transform="translate(354,412)"/>
<path d="M0 0 C11.88 0 23.76 0 36 0 C36 9.9 36 19.8 36 30 C24.12 30 12.24 30 0 30 C0 20.1 0 10.2 0 0 Z " fill="#466089" transform="translate(76,412)"/>
<path d="M0 0 C11.88 0 23.76 0 36 0 C36 9.9 36 19.8 36 30 C24.12 30 12.24 30 0 30 C0 20.1 0 10.2 0 0 Z " fill="#466089" transform="translate(30,412)"/>
<path d="M0 0 C11.88 0 23.76 0 36 0 C36 9.9 36 19.8 36 30 C24.12 30 12.24 30 0 30 C0 20.1 0 10.2 0 0 Z " fill="#466089" transform="translate(446,372)"/>
<path d="M0 0 C11.88 0 23.76 0 36 0 C36 9.9 36 19.8 36 30 C24.12 30 12.24 30 0 30 C0 20.1 0 10.2 0 0 Z " fill="#FFE352" transform="translate(400,372)"/>
<path d="M0 0 C11.88 0 23.76 0 36 0 C36 9.9 36 19.8 36 30 C24.12 30 12.24 30 0 30 C0 20.1 0 10.2 0 0 Z " fill="#466089" transform="translate(288,372)"/>
<path d="M0 0 C11.88 0 23.76 0 36 0 C36 9.9 36 19.8 36 30 C24.12 30 12.24 30 0 30 C0 20.1 0 10.2 0 0 Z " fill="#466089" transform="translate(242,372)"/>
<path d="M0 0 C11.88 0 23.76 0 36 0 C36 9.9 36 19.8 36 30 C24.12 30 12.24 30 0 30 C0 20.1 0 10.2 0 0 Z " fill="#466089" transform="translate(196,372)"/>
<path d="M0 0 C11.88 0 23.76 0 36 0 C36 9.9 36 19.8 36 30 C24.12 30 12.24 30 0 30 C0 20.1 0 10.2 0 0 Z " fill="#466089" transform="translate(150,372)"/>
<path d="M0 0 C11.88 0 23.76 0 36 0 C36 9.9 36 19.8 36 30 C24.12 30 12.24 30 0 30 C0 20.1 0 10.2 0 0 Z " fill="#466089" transform="translate(104,372)"/>
<path d="M0 0 C11.88 0 23.76 0 36 0 C36 9.9 36 19.8 36 30 C24.12 30 12.24 30 0 30 C0 20.1 0 10.2 0 0 Z " fill="#466089" transform="translate(446,332)"/>
<path d="M0 0 C11.88 0 23.76 0 36 0 C36 9.9 36 19.8 36 30 C24.12 30 12.24 30 0 30 C0 20.1 0 10.2 0 0 Z " fill="#466089" transform="translate(320,332)"/>
<path d="M0 0 C11.88 0 23.76 0 36 0 C36 9.9 36 19.8 36 30 C24.12 30 12.24 30 0 30 C0 20.1 0 10.2 0 0 Z " fill="#466089" transform="translate(274,332)"/>
<path d="M0 0 C11.88 0 23.76 0 36 0 C36 9.9 36 19.8 36 30 C24.12 30 12.24 30 0 30 C0 20.1 0 10.2 0 0 Z " fill="#466089" transform="translate(228,332)"/>
<path d="M0 0 C11.88 0 23.76 0 36 0 C36 9.9 36 19.8 36 30 C24.12 30 12.24 30 0 30 C0 20.1 0 10.2 0 0 Z " fill="#FFB0AA" transform="translate(182,332)"/>
<path d="M0 0 C11.88 0 23.76 0 36 0 C36 9.9 36 19.8 36 30 C24.12 30 12.24 30 0 30 C0 20.1 0 10.2 0 0 Z " fill="#FFB0AA" transform="translate(136,332)"/>
<path d="M0 0 C11.88 0 23.76 0 36 0 C36 9.9 36 19.8 36 30 C24.12 30 12.24 30 0 30 C0 20.1 0 10.2 0 0 Z " fill="#FFB0AA" transform="translate(90,332)"/>
<path d="M0 0 C11.88 0 23.76 0 36 0 C36 9.9 36 19.8 36 30 C24.12 30 12.24 30 0 30 C0 20.1 0 10.2 0 0 Z " fill="#466089" transform="translate(446,292)"/>
<path d="M0 0 C11.88 0 23.76 0 36 0 C36 9.9 36 19.8 36 30 C24.12 30 12.24 30 0 30 C0 20.1 0 10.2 0 0 Z " fill="#466089" transform="translate(352,292)"/>
<path d="M0 0 C11.88 0 23.76 0 36 0 C36 9.9 36 19.8 36 30 C24.12 30 12.24 30 0 30 C0 20.1 0 10.2 0 0 Z " fill="#466089" transform="translate(306,292)"/>
<path d="M0 0 C11.88 0 23.76 0 36 0 C36 9.9 36 19.8 36 30 C24.12 30 12.24 30 0 30 C0 20.1 0 10.2 0 0 Z " fill="#466089" transform="translate(260,292)"/>
<path d="M0 0 C11.88 0 23.76 0 36 0 C36 9.9 36 19.8 36 30 C24.12 30 12.24 30 0 30 C0 20.1 0 10.2 0 0 Z " fill="#466089" transform="translate(214,292)"/>
<path d="M0 0 C11.88 0 23.76 0 36 0 C36 9.9 36 19.8 36 30 C24.12 30 12.24 30 0 30 C0 20.1 0 10.2 0 0 Z " fill="#466089" transform="translate(168,292)"/>
<path d="M0 0 C11.88 0 23.76 0 36 0 C36 9.9 36 19.8 36 30 C24.12 30 12.24 30 0 30 C0 20.1 0 10.2 0 0 Z " fill="#FFB0AA" transform="translate(122,292)"/>
<path d="M0 0 C11.88 0 23.76 0 36 0 C36 9.9 36 19.8 36 30 C24.12 30 12.24 30 0 30 C0 20.1 0 10.2 0 0 Z " fill="#466089" transform="translate(76,292)"/>
<path d="M0 0 C11.88 0 23.76 0 36 0 C36 9.9 36 19.8 36 30 C24.12 30 12.24 30 0 30 C0 20.1 0 10.2 0 0 Z " fill="#466089" transform="translate(30,292)"/>
<path d="M0 0 C9.9 0 19.8 0 30 0 C30 9.9 30 19.8 30 30 C20.1 30 10.2 30 0 30 C0 20.1 0 10.2 0 0 Z " fill="#466089" transform="translate(390,252)"/>
<path d="M0 0 C9.9 0 19.8 0 30 0 C30 9.9 30 19.8 30 30 C20.1 30 10.2 30 0 30 C0 20.1 0 10.2 0 0 Z " fill="#466089" transform="translate(350,252)"/>
<path d="M0 0 C9.9 0 19.8 0 30 0 C30 9.9 30 19.8 30 30 C20.1 30 10.2 30 0 30 C0 20.1 0 10.2 0 0 Z " fill="#466089" transform="translate(310,252)"/>
<path d="M0 0 C9.9 0 19.8 0 30 0 C30 9.9 30 19.8 30 30 C20.1 30 10.2 30 0 30 C0 20.1 0 10.2 0 0 Z " fill="#466089" transform="translate(270,252)"/>
<path d="M0 0 C9.9 0 19.8 0 30 0 C30 9.9 30 19.8 30 30 C20.1 30 10.2 30 0 30 C0 20.1 0 10.2 0 0 Z " fill="#466089" transform="translate(230,252)"/>
<path d="M0 0 C9.9 0 19.8 0 30 0 C30 9.9 30 19.8 30 30 C20.1 30 10.2 30 0 30 C0 20.1 0 10.2 0 0 Z " fill="#466089" transform="translate(190,252)"/>
<path d="M0 0 C9.9 0 19.8 0 30 0 C30 9.9 30 19.8 30 30 C20.1 30 10.2 30 0 30 C0 20.1 0 10.2 0 0 Z " fill="#466089" transform="translate(150,252)"/>
<path d="M0 0 C9.9 0 19.8 0 30 0 C30 9.9 30 19.8 30 30 C20.1 30 10.2 30 0 30 C0 20.1 0 10.2 0 0 Z " fill="#466089" transform="translate(110,252)"/>
<path d="M0 0 C9.9 0 19.8 0 30 0 C30 9.9 30 19.8 30 30 C20.1 30 10.2 30 0 30 C0 20.1 0 10.2 0 0 Z " fill="#466089" transform="translate(70,252)"/>
<path d="M0 0 C9.9 0 19.8 0 30 0 C30 9.9 30 19.8 30 30 C20.1 30 10.2 30 0 30 C0 20.1 0 10.2 0 0 Z " fill="#466089" transform="translate(30,252)"/>
<path d="M0 0 C9.9 0 19.8 0 30 0 C30 9.9 30 19.8 30 30 C20.1 30 10.2 30 0 30 C0 20.1 0 10.2 0 0 Z " fill="#466089" transform="translate(241,202)"/>
</svg>
